HIERARCHY
ROOT root
{
	OFFSET 0.000000 0.000000 0.000000
	CHANNELS 6 Xposition Yposition Zposition Zrotation Yrotation Xrotation
	JOINT lhip
	{
		OFFSET 0.058581 -0.082280 -0.017664
		CHANNELS 3 Zrotation Yrotation Xrotation
		JOINT lknee
		{
			OFFSET 0.043451 -0.386469 0.008037
			CHANNELS 3 Zrotation Yrotation Xrotation
			JOINT lankle
			{
				OFFSET -0.014790 -0.426874 -0.037428
				CHANNELS 3 Zrotation Yrotation Xrotation
				JOINT ltoe
				{
					OFFSET 0.041054 -0.060286 0.122042
					CHANNELS 3 Zrotation Yrotation Xrotation
					End Site
					{
						OFFSET 0.000000 0.000000 0.000000
					}
				}
			}
		}
	}
	JOINT rhip
	{
		OFFSET -0.060310 -0.090513 -0.013543
		CHANNELS 3 Zrotation Yrotation Xrotation
		JOINT rknee
		{
			OFFSET -0.043257 -0.383688 -0.004843
			CHANNELS 3 Zrotation Yrotation Xrotation
			JOINT rankle
			{
				OFFSET 0.019056 -0.420046 -0.034562
				CHANNELS 3 Zrotation Yrotation Xrotation
				JOINT rtoe
				{
					OFFSET -0.034840 -0.062106 0.130323
					CHANNELS 3 Zrotation Yrotation Xrotation
					End Site
					{
						OFFSET 0.000000 0.000000 0.000000
					}
				}
			}
		}
	}
	JOINT lowerback
	{
		OFFSET 0.004439 0.124404 -0.038385
		CHANNELS 3 Zrotation Yrotation Xrotation
		JOINT upperback
		{
			OFFSET 0.004488 0.137956 0.026820
			CHANNELS 3 Zrotation Yrotation Xrotation
			JOINT chest
			{
				OFFSET -0.002265 0.056032 0.002855
				CHANNELS 3 Zrotation Yrotation Xrotation
				JOINT lowerneck
				{
					OFFSET -0.013390 0.211636 -0.033468
					CHANNELS 3 Zrotation Yrotation Xrotation
					JOINT upperneck
					{
						OFFSET 0.010113 0.088937 0.050410
						CHANNELS 3 Zrotation Yrotation Xrotation
						End Site
						{
							OFFSET 0.000000 0.000000 0.000000
						}
					}
				}
				JOINT lclavicle
				{
					OFFSET 0.071702 0.114000 -0.018898
					CHANNELS 3 Zrotation Yrotation Xrotation
					JOINT lshoulder
					{
						OFFSET 0.122921 0.045205 -0.019046
						CHANNELS 3 Zrotation Yrotation Xrotation
						JOINT lelbow
						{
							OFFSET 0.255332 -0.015649 -0.022946
							CHANNELS 3 Zrotation Yrotation Xrotation
							JOINT lwrist
							{
								OFFSET 0.265709 0.012698 -0.007375
								CHANNELS 3 Zrotation Yrotation Xrotation
								End Site
								{
									OFFSET 0.000000 0.000000 0.000000
								}
							}
						}
					}
				}
				JOINT rclavicle
				{
					OFFSET -0.082954 0.112472 -0.023707
					CHANNELS 3 Zrotation Yrotation Xrotation
					JOINT rshoulder
					{
						OFFSET -0.113228 0.046853 -0.008472
						CHANNELS 3 Zrotation Yrotation Xrotation
						JOINT relbow
						{
							OFFSET -0.260127 -0.014369 -0.031269
							CHANNELS 3 Zrotation Yrotation Xrotation
							JOINT rwrist
							{
								OFFSET -0.269108 0.006794 -0.006027
								CHANNELS 3 Zrotation Yrotation Xrotation
								End Site
								{
									OFFSET 0.000000 0.000000 0.000000
								}
							}
						}
					}
				}
			}
		}
	}
}
MOTION
Frames: 14
Frame Time: 0.033333
-2.003883 0.267500 1.017285 87.755896 -1.377464 86.768754 0.620111 0.708453 2.607195 -2.887788 -8.256804 7.522636 1.638200 8.297845 -8.598096 0.000000 -0.000000 0.000000 -1.274258 -2.418547 -1.109434 1.810783 -0.117758 12.112195 4.642623 -6.180786 -8.449007 0.000000 -0.000000 0.000000 -0.508896 0.826304 9.629011 0.245856 -1.084079 -4.108820 -0.580129 -1.822744 1.184347 6.486157 -4.043571 -9.851945 0.280696 -10.228327 8.498891 -28.296735 6.187331 -0.859819 -54.199275 -6.451135 8.085684 7.792273 -20.981842 3.501848 -2.853563 -3.650219 -5.061806 28.288413 0.808841 -2.711699 50.447228 7.780558 12.132557 -12.637755 17.761247 -10.280755 3.224324 1.178346 -5.699373 
-2.002713 0.269563 1.017176 88.331893 -1.636691 87.260940 0.261923 0.362386 2.822541 -2.877346 -8.347884 6.086822 1.958806 8.426731 -8.206921 0.000000 -0.000000 0.000000 -1.723079 -2.324265 -1.444315 1.847966 -0.349145 11.952561 6.052444 -6.256043 -7.931504 0.000000 -0.000000 0.000000 -0.705568 0.441363 8.580190 0.218818 -1.919373 -3.880434 -0.772305 -1.500658 1.197229 6.401604 -3.669191 -9.808148 0.351158 -10.131605 8.711664 -27.992651 5.926979 -1.160161 -53.887869 -7.056613 8.259486 7.815900 -20.568968 2.949544 -2.669529 -3.997958 -4.991049 28.935777 0.677284 -2.642296 50.702569 7.546739 12.530577 -12.661887 17.694210 -10.087761 3.095971 1.127943 -5.626075 
-2.001243 0.271601 1.017097 88.649538 -1.576618 87.576900 0.195095 0.471930 3.309712 -2.709867 -8.305249 4.519748 1.938663 8.338581 -7.697359 0.000000 -0.000000 0.000000 -1.766621 -2.288782 -1.585244 1.786499 -0.531257 11.739942 5.809554 -6.637721 -8.056883 0.000000 -0.000000 0.000000 -0.716400 0.429029 8.042652 0.269682 -1.895440 -4.105371 -0.713313 -1.813239 1.134997 6.206628 -3.471697 -9.468346 0.321751 -10.079234 9.274121 -27.899073 5.687096 -1.152981 -53.829961 -7.751535 8.313524 7.933495 -20.583615 2.782562 -2.515019 -3.945088 -4.894634 29.022046 0.300075 -2.562361 51.278706 6.959649 12.945394 -12.581393 17.481085 -9.442473 3.251764 1.107764 -5.379116 
-2.000271 0.274407 1.017428 89.045086 -1.507003 87.968145 0.216293 0.436850 3.597508 -2.762519 -8.635833 3.220213 2.057162 8.422927 -7.340293 0.000000 -0.000000 0.000000 -1.737820 -2.226431 -2.011813 1.615427 -0.670768 11.889787 5.286882 -7.211499 -8.359635 0.000000 -0.000000 0.000000 -1.046474 0.493832 7.697712 0.433862 -1.706292 -4.620019 -0.481911 -2.240400 0.997381 5.912566 -2.926862 -9.140746 0.213514 -9.506729 9.899512 -27.911258 5.477677 -0.936831 -53.650524 -8.558640 8.447311 8.109765 -21.406405 2.544603 -2.296083 -4.140207 -5.166349 29.327701 -0.016245 -2.444198 51.821803 6.071208 13.462974 -12.173020 16.853886 -8.699056 3.662637 0.901682 -5.206135 
-1.999460 0.276223 1.017458 89.082975 -1.458728 88.054583 0.210387 0.559865 3.706199 -2.648626 -8.571347 2.928538 1.673960 8.182264 -7.343213 0.000000 -0.000000 0.000000 -1.707575 -2.244695 -1.929604 1.420680 -0.817957 11.665217 5.163404 -7.373296 -8.376192 0.000000 -0.000000 0.000000 -1.128330 0.346560 7.624968 0.406829 -1.604764 -4.822658 -0.382030 -2.240259 1.038835 5.959158 -2.404254 -9.335974 -0.068473 -8.863566 10.424252 -27.897171 5.502132 -0.963266 -53.547769 -9.178917 8.440757 8.094296 -22.021426 2.448796 -2.129617 -4.317603 -5.623601 29.604371 -0.250324 -2.324287 52.240746 6.002232 13.712067 -11.811000 15.946703 -8.359456 3.859213 0.971296 -4.972659 
-1.998060 0.278391 1.017713 89.542662 -1.471517 88.343538 0.298622 0.389526 3.747486 -2.903546 -8.663582 2.246848 1.757534 7.930138 -7.245565 0.000000 -0.000000 0.000000 -1.765818 -2.513641 -2.120830 1.303247 -1.040580 11.715651 4.669962 -7.779890 -8.569044 0.000000 -0.000000 0.000000 -1.262317 0.273167 7.372947 0.417104 -1.859250 -5.212243 -0.402341 -2.382164 0.978481 5.734581 -0.676808 -9.251548 -0.157595 -7.273694 10.852653 -27.731658 5.671380 -0.794918 -53.372702 -9.667049 8.476251 7.897348 -23.215967 2.595121 -2.165063 -4.490708 -6.324212 30.100881 -0.640297 -2.133802 53.081780 5.919541 13.891034 -11.560545 14.312582 -7.952087 4.342580 0.949632 -4.584972 
-1.998144 0.280675 1.017624 89.734791 -1.410845 88.107596 0.246772 0.233792 4.014300 -2.907507 -8.598837 2.037747 1.809412 7.946914 -6.989698 0.000000 -0.000000 0.000000 -1.783618 -2.348468 -1.908628 1.187044 -1.260072 11.797210 4.306235 -8.162080 -8.798085 0.000000 -0.000000 0.000000 -1.504467 0.434282 7.452522 0.506949 -1.581669 -4.719907 -0.132301 -2.672203 1.024087 5.550438 0.868001 -9.630820 -0.169844 -5.866040 10.863801 -27.634240 5.019488 -0.561134 -53.549593 -10.376479 8.691515 8.052298 -24.655707 2.433845 -2.208986 -4.568494 -6.893432 30.314504 -0.707070 -1.946177 53.687934 5.698530 14.006221 -11.388111 13.736078 -8.017590 4.767124 0.848537 -4.766939 
-1.996977 0.282526 1.017596 90.033968 -1.408077 88.306324 0.106180 0.087272 3.785468 -2.876447 -8.745813 2.005510 1.863642 7.997425 -6.893434 0.000000 -0.000000 0.000000 -1.802994 -2.511968 -2.136547 0.995416 -1.361677 11.928443 3.905349 -8.459675 -9.109363 0.000000 -0.000000 0.000000 -1.390529 0.009744 7.364226 0.369844 -2.007305 -4.802120 -0.272371 -2.319855 1.122066 5.200151 2.811756 -10.496669 -0.219568 -4.196899 10.893877 -27.359447 5.494764 -1.100646 -53.427356 -10.339786 9.051921 7.498802 -26.502731 3.522370 -2.222891 -4.704453 -7.514012 30.938374 -0.968007 -1.488268 54.439135 5.685295 14.185812 -11.256298 13.157771 -8.060625 4.951166 0.810008 -5.126945 
-1.996586 0.284583 1.017230 90.284840 -1.296611 88.209809 0.190942 0.134741 3.870715 -3.006902 -8.720199 1.986957 2.058073 7.712603 -6.855877 0.000000 -0.000000 0.000000 -1.873227 -2.687462 -2.099343 1.065342 -1.459019 12.140643 3.844806 -8.419269 -9.323607 0.000000 -0.000000 0.000000 -1.750724 0.486035 7.257817 0.510829 -1.739442 -4.392248 0.058998 -2.557449 1.251025 4.904088 4.169482 -10.729219 -0.173509 -2.939996 10.419139 -27.261892 4.639834 -0.531669 -53.829257 -11.022473 9.296815 7.816584 -27.658288 3.722427 -2.322117 -4.786116 -7.348616 31.234034 -1.109281 -1.071610 54.972210 5.323752 13.951314 -11.603211 12.983096 -8.449338 5.795500 0.880922 -5.309379 
-1.996145 0.287334 1.016889 90.582711 -1.233097 88.418066 0.051056 -0.123660 3.621958 -2.963031 -8.822628 1.964981 2.172631 7.779821 -6.880181 0.000000 -0.000000 0.000000 -1.995340 -2.809517 -2.388045 1.062414 -1.577449 12.344690 3.962217 -8.464850 -9.479862 0.000000 -0.000000 0.000000 -1.838055 0.637623 7.373140 0.473498 -1.673469 -4.594971 0.134478 -2.486350 1.305294 4.606669 5.227262 -11.349875 -0.268578 -2.117427 10.073853 -27.063608 4.495793 -0.623158 -54.093005 -11.179984 9.818773 7.361207 -29.109505 4.676728 -2.223254 -4.700998 -7.524677 31.645902 -1.432963 -0.587621 55.668450 4.903080 13.893376 -11.915856 12.736645 -8.864063 5.721259 0.838154 -5.640467 
-1.996044 0.289065 1.016673 90.744366 -1.199543 88.356836 0.034765 -0.244155 3.680605 -3.064202 -8.762009 1.924619 2.264431 7.694952 -7.035966 0.000000 -0.000000 0.000000 -2.035657 -2.954972 -2.434116 0.986737 -1.487130 12.544789 4.023209 -8.481265 -9.588924 0.000000 -0.000000 0.000000 -2.025431 0.851819 7.456225 0.530699 -1.612737 -4.239362 0.239698 -2.516560 1.404123 4.288475 5.893059 -12.092713 -0.282439 -1.651025 9.728499 -27.178651 4.200745 -0.550435 -54.085161 -11.356827 10.088681 7.103201 -30.045114 5.140715 -1.894688 -4.859248 -7.633352 31.815561 -1.470201 -0.394789 56.047297 4.874913 13.810821 -12.038365 12.411328 -8.883056 5.343861 0.862390 -5.749619 
-1.995760 0.291159 1.016660 91.071318 -1.068636 88.250611 0.072736 -0.196610 3.728237 -3.097187 -8.808424 1.974584 2.177942 7.361598 -6.977911 0.000000 -0.000000 0.000000 -2.024502 -2.945538 -2.131825 0.900110 -1.855199 12.252440 3.999097 -8.447114 -9.606938 0.000000 -0.000000 0.000000 -1.943168 0.800019 7.783851 0.413165 -1.594832 -4.203686 0.207403 -2.315445 1.361278 4.393718 6.092526 -12.434349 -0.293613 -1.419015 9.462707 -27.065988 3.922855 -0.290826 -54.346468 -11.487343 10.245499 7.029836 -30.361328 5.405496 -1.976309 -4.981396 -7.528640 32.051545 -1.473275 -0.257494 56.056103 4.596557 13.723733 -12.089843 12.303988 -9.039974 5.303696 1.044404 -5.794277 
-1.995581 0.293451 1.016615 91.157576 -0.962636 88.280742 -0.034556 -0.209746 3.738644 -2.988111 -8.878855 1.875003 2.292674 7.389188 -7.083756 0.000000 -0.000000 0.000000 -2.044650 -2.988410 -2.194160 0.841989 -1.899551 12.388334 4.173466 -8.519294 -9.603621 0.000000 -0.000000 0.000000 -1.875272 1.029833 7.848125 0.466875 -1.264071 -4.029807 0.328147 -2.678516 1.484421 4.003377 6.354506 -12.943316 -0.430367 -1.018079 9.264708 -27.321500 3.824757 -0.328517 -54.576923 -11.421084 10.346121 6.882219 -30.380954 5.690362 -1.950208 -5.142637 -7.530897 31.675707 -1.380244 -0.283353 56.041354 4.713166 13.733798 -11.850669 12.118870 -8.852040 5.301500 0.943434 -5.742451 
-1.995258 0.295914 1.016573 91.172338 -0.926277 88.402016 -0.139006 -0.345009 3.654173 -3.014159 -8.766300 1.820168 2.353996 7.406838 -7.170956 0.000000 -0.000000 0.000000 -2.148317 -2.995829 -2.240794 0.849417 -1.897223 12.296509 4.168711 -8.617151 -9.506901 0.000000 -0.000000 0.000000 -1.664177 0.863345 7.832960 0.318130 -1.346711 -4.024974 0.196323 -2.422648 1.519225 3.890993 6.696028 -13.151688 -0.414668 -0.546268 9.115861 -27.406495 3.977237 -0.430995 -54.680656 -10.984853 10.377322 6.624651 -30.047137 6.176028 -2.182944 -5.246626 -7.404268 31.675204 -1.257096 -0.057859 55.575670 4.863301 13.741689 -11.571689 12.136264 -8.644634 5.484949 1.026800 -5.415687 
